<?xml version="1.0" encoding="UTF-8"?> <svg xmlns="http://www.w3.org/2000/svg" xmlns:xlink="http://www.w3.org/1999/xlink" xml:space="preserve" width="4.807in" height="0.69in" version="1.1" style="shape-rendering:geometricPrecision; text-rendering:geometricPrecision; image-rendering:optimizeQuality; fill-rule:evenodd; clip-rule:evenodd" viewBox="0 0 4807 690"> <defs> <style type="text/css"> .fil0 {fill:#2B2A29;fill-rule:nonzero} </style> </defs> <g id="Layer_x0020_1"> <metadata id="CorelCorpID_0Corel-Layer"></metadata> <path class="fil0" d="M949 53c0,-6 -1,-13 -3,-21l-11 2c3,7 4,12 4,15 0,20 -8,34 -24,41 -11,5 -28,8 -51,8 -34,0 -86,-11 -157,-33l-52 -16c-53,-17 -94,-25 -122,-25 -72,0 -126,20 -163,60 -79,0 -144,30 -196,88 -50,55 -75,123 -75,203 0,78 25,146 75,204 52,60 117,90 193,90 64,0 125,-21 183,-63 17,11 32,21 45,29 13,8 24,14 34,19 30,15 60,22 89,22 40,0 73,-14 100,-42 27,-29 40,-62 40,-102 0,-18 -3,-34 -10,-46 -9,-16 -22,-24 -38,-24 -10,0 -18,3 -25,9 -7,7 -11,15 -11,25 0,9 3,17 9,25 6,7 13,11 21,11 6,0 12,-1 17,-4l15 -6c9,0 13,5 13,17 0,25 -13,46 -39,63 -23,14 -48,22 -75,22 -67,0 -121,-13 -163,-40 24,-26 44,-60 59,-103 9,-25 18,-64 28,-116 23,-6 41,-10 54,-10 24,0 38,8 43,25 3,9 7,14 11,14 7,0 10,-4 10,-13 0,-11 -8,-20 -25,-28 -14,-7 -27,-10 -39,-10 -14,0 -31,3 -51,9 5,-29 10,-53 14,-71 4,-19 7,-34 10,-43 13,-44 32,-78 55,-101l15 2c34,9 61,14 79,14 30,0 56,-9 78,-27 24,-19 36,-44 36,-73zm-220 76c-29,26 -51,51 -65,76 -12,19 -25,50 -40,92l-16 45c0,1 -1,8 -5,21l-7 0c-2,0 -6,0 -10,-1 -4,-1 -7,-1 -10,-1 6,-29 8,-51 8,-64 0,-59 -18,-109 -55,-149 -36,-41 -84,-62 -144,-64 28,-25 62,-38 101,-38 25,0 68,13 126,38l50 23c10,4 21,8 32,12 11,3 23,7 35,10zm-157 163c0,18 -4,39 -11,63 -12,-7 -20,-15 -24,-24 6,-7 9,-15 9,-24 0,-12 -3,-17 -9,-17 -10,0 -15,7 -15,21l0 20c-18,21 -43,32 -74,32 -37,0 -67,-15 -90,-47 -20,-28 -31,-62 -31,-101 0,-42 15,-83 45,-121l17 0c52,0 96,20 132,60 34,39 51,85 51,138zm28 83c-3,6 -4,11 -4,15 -34,91 -59,149 -76,173 -8,-5 -14,-8 -19,-8l-31 -16c-9,-5 -16,-9 -22,-12 -6,-3 -10,-6 -14,-8l-6 -2c-2,0 -4,-1 -6,-1 -2,0 -4,-1 -7,-1 22,-6 40,-13 57,-21 16,-8 30,-18 42,-28 27,-24 46,-55 58,-94 6,2 13,3 19,3l9 0zm-42 -10c-14,40 -37,73 -69,99 -33,27 -71,41 -111,41 -3,0 -7,0 -12,-1 -5,-1 -9,-2 -12,-2 -6,-1 -11,-2 -16,-2 -9,0 -14,4 -14,11 0,7 4,11 11,11 8,0 13,-1 17,-3l15 0c25,0 50,6 75,18 15,7 37,21 67,41 -42,51 -91,77 -148,77 -70,0 -129,-28 -177,-85 -45,-54 -68,-117 -68,-189 0,-68 21,-129 63,-183 43,-57 98,-90 165,-100l13 -4c-29,38 -43,78 -43,121 0,42 11,79 34,110 26,33 59,50 100,50 31,0 58,-11 80,-33 11,13 21,21 30,23z"></path> <path id="1" class="fil0" d="M1241 431c0,-4 -1,-7 -2,-9 -15,22 -28,40 -39,55 -12,14 -20,26 -26,33 -36,44 -64,66 -82,66 -17,0 -31,-13 -43,-41l-24 -52 24 -31c24,-30 41,-45 51,-45 11,0 17,6 17,17 0,20 -11,42 -34,68l2 2c16,-8 29,-20 41,-35 13,-17 19,-34 19,-50 0,-9 -2,-17 -7,-23 -5,-7 -12,-10 -20,-10 -14,0 -30,11 -49,33l-52 61 -39 -87c-2,-5 -4,-7 -7,-7 0,0 -1,0 -1,0 -1,1 -1,1 -1,1l-25 4c-3,1 -5,3 -5,6 0,1 0,3 0,3l54 119 -46 58c-13,15 -23,23 -31,23 -10,0 -15,-5 -15,-16 0,1 1,1 1,-1 0,-2 0,-6 1,-12l-2 -1c-17,13 -26,28 -26,45 0,15 7,23 21,23 13,0 31,-14 52,-41l52 -65c11,25 20,42 29,54 14,18 31,27 50,27 27,0 70,-37 126,-112 24,-32 36,-52 36,-60z"></path> <path id="2" class="fil0" d="M1477 429c0,-3 0,-5 -1,-8 -69,111 -130,166 -186,166 -34,0 -51,-19 -51,-57 0,-18 4,-38 12,-59 7,-19 17,-37 29,-53 16,-21 32,-31 49,-31 14,0 21,8 21,24 0,15 -8,26 -24,33 4,7 10,10 19,10 11,0 21,-4 29,-11 9,-8 13,-17 13,-28 0,-14 -6,-25 -17,-33 -10,-7 -22,-10 -37,-10 -33,0 -66,18 -99,54 -27,31 -41,64 -41,98 0,24 7,43 22,58 15,15 34,23 58,23 62,0 123,-43 183,-129 14,-21 21,-37 21,-47z"></path> <path id="3" class="fil0" d="M1681 431l-2 -12c-15,22 -28,41 -39,57 -11,16 -20,28 -27,36 -37,46 -65,68 -85,68 -21,0 -32,-18 -32,-56 0,-18 2,-36 7,-55 72,-93 109,-186 109,-278 0,-24 -4,-40 -11,-47l-4 1c-19,12 -40,42 -64,91 -25,53 -44,105 -56,156 -16,67 -24,111 -24,132 0,22 5,40 13,55 11,16 26,25 47,25 35,0 79,-38 134,-113 23,-32 34,-52 34,-60zm-104 -169c0,59 -24,119 -72,181 11,-96 33,-177 66,-241 4,23 6,43 6,60z"></path> <path id="4" class="fil0" d="M1975 424c0,-2 -1,-5 -3,-9 -72,109 -118,163 -139,163 -8,0 -12,-5 -12,-14 0,-7 2,-17 6,-29l50 -148c1,-3 2,-5 2,-6 0,-4 -2,-6 -6,-6l-2 0 -24 6c-6,1 -12,7 -17,18 -5,11 -10,20 -13,26 -3,7 -6,12 -7,14 -9,14 -18,27 -27,40 -10,13 -19,26 -29,39 -33,40 -56,60 -69,60 -9,0 -13,-4 -13,-13 0,-4 2,-13 5,-28l53 -150c0,0 0,-2 1,-6 0,-4 -2,-5 -5,-5l-3 0 -27 5c-4,1 -6,2 -8,3 -1,2 -2,5 -3,9l-45 136c-6,20 -9,33 -9,40 0,23 11,34 33,34 33,0 82,-49 148,-146 -21,58 -32,94 -32,108 0,25 12,38 35,38 29,0 69,-37 122,-110 25,-36 38,-59 38,-69z"></path> <path id="5" class="fil0" d="M2211 422c0,-4 -1,-6 -3,-7 -58,97 -104,148 -138,153 12,-14 19,-27 19,-40 0,-17 -12,-35 -34,-52 -9,-7 -16,-12 -23,-17 -6,-5 -11,-9 -15,-12 -10,-9 -15,-18 -15,-28 0,-10 5,-18 15,-24 8,-5 18,-8 29,-8 17,0 26,7 26,20 0,9 -4,17 -12,24l2 4c11,-1 20,-4 29,-9 11,-7 16,-15 16,-24 0,-20 -15,-30 -45,-30 -22,0 -43,5 -63,16 -24,13 -36,30 -36,51 0,10 5,20 14,29 2,2 6,6 12,10 5,5 13,11 23,18 7,6 13,11 18,15 5,5 8,8 10,10 7,8 11,17 11,27 0,14 -6,25 -19,32 -10,6 -22,9 -37,9 -22,0 -34,-7 -34,-22 0,-9 5,-17 13,-22l0 -2c-6,-3 -12,-4 -18,-4 -10,0 -18,3 -25,7 -8,6 -13,13 -13,22 0,13 8,23 25,29 11,4 24,7 39,7 18,0 39,-5 62,-15 23,-2 46,-12 68,-29 8,-7 17,-15 27,-26 10,-10 21,-23 32,-38 27,-34 40,-58 40,-74z"></path> <path id="6" class="fil0" d="M2285 292c0,-4 -4,-8 -12,-11 0,0 -1,-1 -3,-2 -2,-2 -4,-3 -7,-5 -2,-1 -4,-3 -6,-4 -3,-1 -4,-1 -5,-1 -2,0 -6,4 -11,13 -5,9 -8,15 -8,19 0,5 6,10 16,14 10,4 17,6 23,6 9,0 13,-10 13,-29zm86 136c0,-1 -1,-3 -1,-4 0,-2 -1,-4 -1,-5 -74,109 -124,163 -149,163 -11,0 -16,-6 -16,-18 0,-9 3,-23 9,-42l44 -137c1,-3 2,-4 2,-4 0,-4 -2,-5 -5,-5l-2 0 -24 5c-6,0 -10,4 -13,11l-41 128c-7,21 -10,35 -10,42 0,26 13,39 38,39 34,0 79,-37 133,-110 24,-32 36,-53 36,-63z"></path> <path id="7" class="fil0" d="M2644 433c0,-5 -1,-8 -2,-9 -19,26 -34,47 -46,63 -11,16 -19,26 -24,32 -19,22 -35,33 -46,33 -14,0 -22,-9 -26,-26 36,-49 54,-95 54,-136 0,-4 0,-8 -2,-10l-4 -1c-19,14 -35,31 -48,50 -15,22 -22,43 -22,65 0,9 1,19 4,30 -18,36 -38,54 -59,54 -18,0 -27,-18 -27,-56 0,-8 1,-18 2,-30 1,-11 3,-25 5,-40 5,-31 8,-53 8,-67 0,-6 -2,-9 -6,-9 0,0 -1,0 -1,0 0,0 0,0 -1,1l-24 6c-5,1 -8,3 -10,7 -1,1 -2,8 -3,21 -3,28 -5,51 -7,69 -1,18 -2,32 -2,42 0,54 15,82 46,82 28,0 57,-21 86,-63 8,17 20,26 33,26 21,0 50,-25 86,-74 24,-32 36,-52 36,-60z"></path> <path id="8" class="fil0" d="M2876 428c0,-2 0,-4 -2,-8 -12,21 -25,40 -38,57 -13,18 -26,33 -40,47 -39,42 -76,63 -109,63 -32,0 -48,-18 -48,-55 34,-10 64,-24 89,-41 36,-24 54,-48 54,-75 0,-14 -5,-25 -16,-33 -11,-7 -23,-11 -38,-11 -33,0 -64,17 -93,52 -27,33 -41,67 -41,100 0,24 7,43 20,58 14,15 32,23 56,23 61,0 120,-40 178,-120 19,-25 28,-44 28,-57zm-132 -15c0,25 -12,48 -35,68 -19,18 -42,29 -70,36 4,-27 12,-53 25,-79 17,-34 36,-51 58,-51 15,0 22,9 22,26z"></path> <path id="9" class="fil0" d="M3698 137c0,-25 -4,-48 -13,-66 -11,-24 -29,-36 -52,-36 -25,0 -51,13 -75,39 -48,-40 -101,-60 -161,-60 -75,0 -139,24 -192,73 -54,50 -81,112 -81,186 0,66 21,123 63,170 43,48 98,73 163,73l27 0c-2,4 -4,9 -8,17 -4,8 -9,18 -16,29 -63,-40 -114,-60 -150,-60 -28,0 -51,7 -70,20 -23,15 -34,35 -34,61 0,25 12,45 36,62 22,14 46,21 72,21 69,0 127,-23 175,-69 15,11 29,21 41,30 12,8 23,15 32,20 31,16 59,24 84,24 39,0 74,-17 104,-50 29,-32 44,-68 44,-108 0,-11 -3,-21 -8,-30 -6,-10 -14,-16 -24,-16 -9,0 -17,4 -23,11 -7,7 -10,15 -10,24 0,18 8,31 22,38 9,4 13,6 14,8 3,2 5,7 5,14 0,24 -15,44 -45,58 -25,11 -50,17 -77,17 -45,0 -96,-15 -151,-46 26,-29 46,-61 59,-95 70,-25 128,-73 176,-143 49,-69 73,-142 73,-216zm-22 -13c0,74 -20,145 -59,212 -41,71 -95,120 -162,147 5,-14 10,-32 15,-56 6,-23 13,-51 20,-83 13,-57 26,-106 38,-146 13,-40 25,-71 37,-95 10,11 23,30 39,60l6 10 10 -5c-18,-34 -34,-59 -49,-76 25,-31 45,-46 62,-46 29,0 43,26 43,78zm-129 -43c-25,32 -44,60 -56,85 -7,14 -15,32 -22,53 -7,22 -15,48 -24,78 -15,51 -28,94 -39,128 -10,34 -19,60 -27,77 -9,1 -18,2 -29,2 -59,0 -108,-21 -148,-62 -40,-41 -59,-91 -59,-150 0,-72 25,-134 76,-187 51,-54 112,-81 183,-81 54,0 103,19 145,57zm-200 491c-37,54 -82,81 -137,81 -24,0 -46,-5 -65,-16 -23,-13 -34,-31 -34,-54 0,-21 10,-39 30,-53 18,-11 39,-17 62,-17 23,0 48,7 75,20 6,3 14,7 26,14 11,6 26,15 43,25z"></path> <path id="10" class="fil0" d="M3861 292c0,-4 -5,-8 -13,-11 0,0 -1,-1 -3,-2 -2,-2 -4,-3 -6,-5 -3,-1 -5,-3 -7,-4 -2,-1 -4,-1 -5,-1 -2,0 -5,4 -11,13 -5,9 -8,15 -8,19 0,5 6,10 17,14 9,4 16,6 23,6 8,0 13,-10 13,-29zm85 136c0,-1 0,-3 -1,-4 0,-2 0,-4 0,-5 -75,109 -124,163 -150,163 -10,0 -16,-6 -16,-18 0,-9 3,-23 9,-42l45 -137c0,-3 1,-4 1,-4 0,-4 -2,-5 -5,-5l-2 0 -24 5c-5,0 -10,4 -13,11l-41 128c-6,21 -10,35 -10,42 0,26 13,39 38,39 35,0 79,-37 134,-110 23,-32 35,-53 35,-63z"></path> <path id="11" class="fil0" d="M4239 431c0,0 0,-1 0,-2 0,-2 -1,-4 -2,-7 -72,102 -118,152 -137,152 -9,0 -13,-3 -13,-10 0,-7 9,-37 28,-89 11,-30 16,-51 16,-64 0,-11 -3,-19 -10,-27 -7,-7 -15,-10 -26,-10 -31,0 -80,50 -146,151l45 -140c0,-3 1,-4 1,-4 0,-4 -2,-6 -5,-6 -3,0 -5,0 -5,1l-22 5c-6,1 -11,7 -16,17l-58 189c0,1 0,4 0,8 0,3 2,5 5,5l3 0 24 -3c5,-1 9,-4 13,-10 0,0 2,-5 6,-15 4,-10 10,-22 18,-34 8,-13 17,-28 28,-44 44,-62 75,-93 92,-93 7,0 11,3 11,10 0,2 -6,20 -17,54 -19,54 -28,87 -28,97 0,11 4,21 11,28 7,8 16,12 26,12 24,0 61,-32 111,-96 31,-41 47,-66 47,-75z"></path> <path id="12" class="fil0" d="M4472 428c0,-2 0,-4 -2,-8 -12,21 -25,40 -38,57 -13,18 -26,33 -40,47 -39,42 -76,63 -109,63 -32,0 -48,-18 -48,-55 35,-10 64,-24 89,-41 37,-24 55,-48 55,-75 0,-14 -6,-25 -17,-33 -11,-7 -23,-11 -38,-11 -33,0 -64,17 -93,52 -27,33 -41,67 -41,100 0,24 7,43 20,58 14,15 33,23 56,23 61,0 121,-40 178,-120 19,-25 28,-44 28,-57zm-132 -15c0,25 -11,48 -34,68 -20,18 -43,29 -71,36 4,-27 12,-53 25,-79 17,-34 36,-51 59,-51 14,0 21,9 21,26z"></path> <path id="13" class="fil0" d="M4708 422c0,-4 -1,-6 -3,-7 -58,97 -105,148 -139,153 13,-14 19,-27 19,-40 0,-17 -11,-35 -34,-52 -8,-7 -16,-12 -22,-17 -6,-5 -11,-9 -16,-12 -10,-9 -15,-18 -15,-28 0,-10 5,-18 15,-24 9,-5 18,-8 29,-8 18,0 27,7 27,20 0,9 -4,17 -13,24l2 4c11,-1 21,-4 30,-9 10,-7 15,-15 15,-24 0,-20 -15,-30 -45,-30 -22,0 -43,5 -63,16 -23,13 -35,30 -35,51 0,10 5,20 14,29 2,2 6,6 11,10 6,5 14,11 23,18 8,6 14,11 18,15 5,5 9,8 11,10 7,8 10,17 10,27 0,14 -6,25 -18,32 -10,6 -23,9 -37,9 -23,0 -34,-7 -34,-22 0,-9 4,-17 12,-22l0 -2c-6,-3 -12,-4 -18,-4 -9,0 -17,3 -25,7 -8,6 -12,13 -12,22 0,13 8,23 24,29 11,4 25,7 40,7 18,0 38,-5 61,-15 24,-2 47,-12 69,-29 8,-7 17,-15 27,-26 10,-10 21,-23 32,-38 26,-34 40,-58 40,-74z"></path> </g> </svg> 